<svg xmlns="http://www.w3.org/2000/svg" width="1200" height="630" viewBox="0 0 1200 630">
  <rect width="1200" height="630" fill="#0d1117"/>
  <!-- Grid pattern background -->
  <g opacity="0.08">
    <line x1="0" y1="0" x2="0" y2="630" stroke="#b388ff" stroke-width="1" />
    <line x1="75" y1="0" x2="75" y2="630" stroke="#b388ff" stroke-width="1" />
    <line x1="150" y1="0" x2="150" y2="630" stroke="#b388ff" stroke-width="1" />
    <line x1="225" y1="0" x2="225" y2="630" stroke="#b388ff" stroke-width="1" />
    <line x1="300" y1="0" x2="300" y2="630" stroke="#b388ff" stroke-width="1" />
    <line x1="375" y1="0" x2="375" y2="630" stroke="#b388ff" stroke-width="1" />
    <line x1="450" y1="0" x2="450" y2="630" stroke="#b388ff" stroke-width="1" />
    <line x1="525" y1="0" x2="525" y2="630" stroke="#b388ff" stroke-width="1" />
    <line x1="600" y1="0" x2="600" y2="630" stroke="#b388ff" stroke-width="1" />
    <line x1="0" y1="0" x2="1200" y2="0" stroke="#b388ff" stroke-width="1" />
    <line x1="0" y1="79" x2="1200" y2="79" stroke="#b388ff" stroke-width="1" />
    <line x1="0" y1="158" x2="1200" y2="158" stroke="#b388ff" stroke-width="1" />
    <line x1="0" y1="237" x2="1200" y2="237" stroke="#b388ff" stroke-width="1" />
    <line x1="0" y1="316" x2="1200" y2="316" stroke="#b388ff" stroke-width="1" />
    <line x1="0" y1="395" x2="1200" y2="395" stroke="#b388ff" stroke-width="1" />
    <line x1="0" y1="474" x2="1200" y2="474" stroke="#b388ff" stroke-width="1" />
    <line x1="0" y1="553" x2="1200" y2="553" stroke="#b388ff" stroke-width="1" />
  </g>
  <!-- 4x4 pad grid hint -->
  <g transform="translate(80, 160)" opacity="0.15">
    <rect x="0" y="0" width="80" height="80" rx="8" fill="#b388ff"/>
    <rect x="90" y="0" width="80" height="80" rx="8" fill="#b388ff"/>
    <rect x="180" y="0" width="80" height="80" rx="8" fill="#66ff99"/>
    <rect x="270" y="0" width="80" height="80" rx="8" fill="#b388ff"/>
    <rect x="0" y="90" width="80" height="80" rx="8" fill="#b388ff"/>
    <rect x="90" y="90" width="80" height="80" rx="8" fill="#66ff99"/>
    <rect x="180" y="90" width="80" height="80" rx="8" fill="#b388ff"/>
    <rect x="270" y="90" width="80" height="80" rx="8" fill="#ff4444"/>
    <rect x="0" y="180" width="80" height="80" rx="8" fill="#66ff99"/>
    <rect x="90" y="180" width="80" height="80" rx="8" fill="#b388ff"/>
    <rect x="180" y="180" width="80" height="80" rx="8" fill="#b388ff"/>
    <rect x="270" y="180" width="80" height="80" rx="8" fill="#b388ff"/>
    <rect x="0" y="270" width="80" height="80" rx="8" fill="#b388ff"/>
    <rect x="90" y="270" width="80" height="80" rx="8" fill="#b388ff"/>
    <rect x="180" y="270" width="80" height="80" rx="8" fill="#66ff99"/>
    <rect x="270" y="270" width="80" height="80" rx="8" fill="#b388ff"/>
  </g>
  <!-- Logo -->
  <text x="560" y="220" font-family="monospace" font-size="72" font-weight="900" fill="#e8eaed" letter-spacing="4">mloop</text>
  <!-- Tagline -->
  <text x="560" y="290" font-family="system-ui, sans-serif" font-size="28" fill="#8b949e">Browser Loop Station &amp; Sampler</text>
  <!-- Features -->
  <text x="560" y="360" font-family="system-ui, sans-serif" font-size="20" fill="#58a6ff">16 Pads</text>
  <text x="700" y="360" font-family="system-ui, sans-serif" font-size="20" fill="#58a6ff">3 Loop Tracks</text>
  <text x="890" y="360" font-family="system-ui, sans-serif" font-size="20" fill="#58a6ff">9 Effects</text>
  <text x="1020" y="360" font-family="system-ui, sans-serif" font-size="20" fill="#58a6ff">KAOS Pad</text>
  <!-- Dots between features -->
  <circle cx="680" cy="355" r="3" fill="#484f58"/>
  <circle cx="870" cy="355" r="3" fill="#484f58"/>
  <circle cx="1000" cy="355" r="3" fill="#484f58"/>
  <!-- CTA -->
  <rect x="560" y="400" width="240" height="48" rx="24" fill="#b388ff"/>
  <text x="616" y="431" font-family="system-ui, sans-serif" font-size="18" font-weight="700" fill="#0d1117">No install needed</text>
  <!-- URL -->
  <text x="560" y="520" font-family="monospace" font-size="18" fill="#484f58">mloop.mpump.live</text>
  <!-- Waveform decoration -->
  <g transform="translate(560, 470)" opacity="0.3">
    <rect x="0" y="5" width="4" height="10" rx="2" fill="#66ff99"/>
    <rect x="8" y="2" width="4" height="16" rx="2" fill="#66ff99"/>
    <rect x="16" y="0" width="4" height="20" rx="2" fill="#66ff99"/>
    <rect x="24" y="3" width="4" height="14" rx="2" fill="#66ff99"/>
    <rect x="32" y="6" width="4" height="8" rx="2" fill="#66ff99"/>
    <rect x="40" y="1" width="4" height="18" rx="2" fill="#66ff99"/>
    <rect x="48" y="4" width="4" height="12" rx="2" fill="#66ff99"/>
    <rect x="56" y="0" width="4" height="20" rx="2" fill="#66ff99"/>
    <rect x="64" y="5" width="4" height="10" rx="2" fill="#66ff99"/>
    <rect x="72" y="2" width="4" height="16" rx="2" fill="#66ff99"/>
    <rect x="80" y="7" width="4" height="6" rx="2" fill="#66ff99"/>
    <rect x="88" y="3" width="4" height="14" rx="2" fill="#66ff99"/>
  </g>
</svg>
